# xmcd
#
# Track frame offsets:
#	150
#	17677
#	32750
#	47363
#	62723
#	76563
#	90776
#	106808
#	121420
#	138794
#	156560
#	171549
#	189641
#	203609
#	218721
#	229901
#	247981
#	265851
#	281824
#	301334
#	321333
#	339633
#
# Disc length: 4739 seconds
#
# Revision: 1
# Processed by: cddbd v1.5.2PL0 Copyright (c) Steve Scherf et al.
# Submitted via: audiograbber 1.83.01
#
DISCID=2b128116
DTITLE=Norah Jones - New York City CD2
DYEAR=2006
DGENRE=Pop
TTITLE0=Better the devil you know
TTITLE1=I believe in you
TTITLE2=The loco-motion
TTITLE3=I should be so luckly
TTITLE4=Step back in time
TTITLE5=Shocked
TTITLE6=What do I have to do
TTITLE7=Wouldn't change a thing
TTITLE8=Hand on your heart
TTITLE9=Especially for you
TTITLE10=Got to be certain
TTITLE11=Je ne sais pas Pourquoi
TTITLE12=Give me just a little more time
TTITLE13=Never too late
TTITLE14=Tears on my pillow
TTITLE15=Celebration
TTITLE16=Love at first sight
TTITLE17=On a night like this
TTITLE18=Kids
TTITLE19=Confeit in me
TTITLE20=Please stay
TTITLE21=Giving you up
EXTD=
EXTT0=
EXTT1=
EXTT2=
EXTT3=
EXTT4=
EXTT5=
EXTT6=
EXTT7=
EXTT8=
EXTT9=
EXTT10=
EXTT11=
EXTT12=
EXTT13=
EXTT14=
EXTT15=
EXTT16=
EXTT17=
EXTT18=
EXTT19=
EXTT20=
EXTT21=
PLAYORDER=
